<svg width="17" height="18" viewBox="0 0 17 18" fill="none" xmlns="http://www.w3.org/2000/svg">
<path d="M14.5 7.66663C14.5 12.3333 8.5 16.3333 8.5 16.3333C8.5 16.3333 2.5 12.3333 2.5 7.66663C2.5 6.07533 3.13214 4.5492 4.25736 3.42399C5.38258 2.29877 6.9087 1.66663 8.5 1.66663C10.0913 1.66663 11.6174 2.29877 12.7426 3.42399C13.8679 4.5492 14.5 6.07533 14.5 7.66663Z" stroke="white" stroke-width="2" stroke-linecap="round" stroke-linejoin="round"/>
<path d="M8.5 9.66663C9.60457 9.66663 10.5 8.7712 10.5 7.66663C10.5 6.56206 9.60457 5.66663 8.5 5.66663C7.39543 5.66663 6.5 6.56206 6.5 7.66663C6.5 8.7712 7.39543 9.66663 8.5 9.66663Z" stroke="white" stroke-width="2" stroke-linecap="round" stroke-linejoin="round"/>
</svg>
